<svg xmlns="http://www.w3.org/2000/svg" viewBox="0 0 527.97 85.41"><defs><style>.cls-1{fill:#fff;}</style></defs><g id="Layer_2" data-name="Layer 2"><g id="Layer_1-2" data-name="Layer 1"><path class="cls-1" d="M66.13,48.34s.69-5.12,2.56-4.6,4.1.68,2.39,3.41S66.64,51.76,66.13,48.34Z"/><path class="cls-1" d="M68.72,41.1s2.9-13.83,6.48-14.17,6.49-.34,5.63,3.25S74.55,42.45,72,42.94,68.52,42,68.72,41.1Z"/><path class="cls-1" d="M58,39.56s4.26-1.88,6.31-9.73,2-7.68,3.63-10.24S72,9.53,69.4,7.31s-7.68,0-8.19,7.68a28.56,28.56,0,0,1-5.29,15.36C54,32.74,52.85,42,58,39.56Z"/><path class="cls-1" d="M45.46,33.66s2.73-.34,2.56-5.29-2.73-5.46-2.56-6.14,1.38,1.19,2.57-6.49S49.37.73,45.45,0s-6.31,7-5.79,12.29,3.07,9.82,2.9,11S39.14,35.71,45.46,33.66Z"/><path class="cls-1" d="M11.67,56.7a8.3,8.3,0,0,0-1.2-8.36C7.23,44.42.74,44.28.23,45.11S-.28,49.19,3.82,53,9.28,58.41,11.67,56.7Z"/><path class="cls-1" d="M57.06,45.11c-8.87-.52-7.34-2.47-9.55-5.08s-6.46-3.64-7.92-1.93-3.18-4.27-5.05-8.7S32.66,12,29.59,8.58a5.85,5.85,0,0,0-5.12-3.76s-4.78,2.73-4.61,7.34S22.93,30.34,26,35s4.61,16.08,2.73,18.81-4.27,7.51-8.88,10.58,1.89,16.05,8.71,17.24,10.07-2.22,14.34-1,2.69,3.24,5.87,4.6S62.89,80.94,62.2,71c0-5.8-.19-6.83,1.86-9.73S65.94,45.64,57.06,45.11Zm-9.23,11c1.3-2.25,2.81-4.2,4-3.56S52,55.71,50.73,57s-2.86,1.92-3.06,2.25-1.71,4-2.93,2.1c0,0-.64-.66.44-1.92s1.86-.85,2-1.07S46.53,58.38,47.83,56.12Zm-7.2.27c1.11-2.48,1.09-2.42,1.2-3.44s1.06-3.48,2.19-3.52,2,1.61.53,3.72a9.59,9.59,0,0,0-1.85,5.13c0,1-1.63,3.67-2.47,2C40.23,60.25,39.51,58.87,40.63,56.39ZM36.23,53c.53-1.12,1.29-.51,2.15.33S37.1,58.4,37.1,58.4c-.13.27-.66.47-1.23-.21S35.7,54.11,36.23,53Zm.44,7.84c-.85.79-1.17-.28-1-1.35s.75-.65,1.34-.39S36.67,60.84,36.67,60.84ZM51.56,75.13c-1.86.12-2.57.27-2.84-.67a2.8,2.8,0,0,1,2.07-1.94c1.67-.34,3.39,1,3.35,1.31S53.42,75,51.56,75.13Zm5.28-15-.9,1c-1,1.17-4.62,4.11-6.4,4.67S45,69,44.87,70.11a11.41,11.41,0,0,0,.1,4.63c.56,1.77-3.86,3.8-5.9,2.67s-2.16-2.69-3.53-3.27-1.38.28-2.5,0-2.79-4.09-.53-6.53c1.22-1.51,1.48-1.74,1.56-2.93s2.8-4.48,5.23-2.76,2.44.9,3.56.68,2.45.41,2.48,1.16,1.72-.44,3.15-1.21,4.19-3.94,5.66-4.4c1.3-.4,2-.36,2.36-.12C57.27,58.51,56.84,60.08,56.84,60.08Z"/><path class="cls-1" d="M132.36,18.61H114.81V27h15.07v5.5H114.81v16.7h-6V13.11h23.57Z"/><path class="cls-1" d="M157.37,49.89H151.6l0-2.85a17.47,17.47,0,0,1-4,2.07,13.16,13.16,0,0,1-4.69.81,9.54,9.54,0,0,1-3.61-.68,8.8,8.8,0,0,1-2.9-1.88,8.53,8.53,0,0,1-1.92-2.85,9.16,9.16,0,0,1-.69-3.57,8.34,8.34,0,0,1,5.31-8.28,20.82,20.82,0,0,1,4.76-1.28,68.71,68.71,0,0,1,7.67-.75,8,8,0,0,0-.44-3.3,2.76,2.76,0,0,0-.88-1,4.83,4.83,0,0,0-1.33-.64,7.75,7.75,0,0,0-1.7-.34,17.42,17.42,0,0,0-1.95-.1c-.74.05-1.43.12-2.06.22a10.77,10.77,0,0,0-1.78.42,8.14,8.14,0,0,0-1.58.74,11,11,0,0,0-1.56,1.19V22.33A6.27,6.27,0,0,1,141,20.82a12,12,0,0,1,4.26-.85q5.53,0,8,1.67a7.89,7.89,0,0,1,3.23,3.53,14.51,14.51,0,0,1,.85,5.67ZM151.6,35.58l-3.8.26a33,33,0,0,0-3.52.52,9,9,0,0,0-2.5.9,4,4,0,0,0-1.5,1.39,3.78,3.78,0,0,0-.5,2q0,3.78,4.77,3.78a9.62,9.62,0,0,0,3.49-.68,15.57,15.57,0,0,0,3.56-2Z"/><path class="cls-1" d="M183.53,47.3a30.52,30.52,0,0,1-4.85,1.85,15.48,15.48,0,0,1-4.2.62,15.64,15.64,0,0,1-5.59-.94,11.61,11.61,0,0,1-4.24-2.77A12.38,12.38,0,0,1,162,41.58a18,18,0,0,1-1-6,17.7,17.7,0,0,1,1-6,12.57,12.57,0,0,1,2.71-4.52,11.74,11.74,0,0,1,4.24-2.88,14.77,14.77,0,0,1,5.57-1,20.23,20.23,0,0,1,9.05,2.43v6h-1.16q-4.2-3.25-8.06-3.25a7.61,7.61,0,0,0-3.16.61,6.19,6.19,0,0,0-2.31,1.8,8.08,8.08,0,0,0-1.41,2.88,14.68,14.68,0,0,0-.47,3.88c0,2.89.62,5.13,1.87,6.7a6.56,6.56,0,0,0,5.48,2.35,9.12,9.12,0,0,0,2.19-.27,14.1,14.1,0,0,0,2.11-.7,14.69,14.69,0,0,0,2-1,17.13,17.13,0,0,0,1.79-1.24h1.16Z"/><path class="cls-1" d="M210.57,37.81H191.66a6.64,6.64,0,0,0,.84,2.68,6.73,6.73,0,0,0,1.82,2A8.44,8.44,0,0,0,197,43.86a10.74,10.74,0,0,0,3.28.48,18.15,18.15,0,0,0,9.9-2.89v6.28a40.37,40.37,0,0,1-5.43,1.56,23.32,23.32,0,0,1-4.69.51,18.08,18.08,0,0,1-6-.95,12.46,12.46,0,0,1-4.56-2.75,12,12,0,0,1-2.85-4.46,17.3,17.3,0,0,1-1-6,14.7,14.7,0,0,1,4.32-11,13,13,0,0,1,9.32-3.81,11.44,11.44,0,0,1,4.62.92,10.39,10.39,0,0,1,3.59,2.6,11.84,11.84,0,0,1,2.32,4,15.61,15.61,0,0,1,.83,5.19Zm-5.68-5a8.9,8.9,0,0,0-.57-2.84A6.88,6.88,0,0,0,203,27.82,5.62,5.62,0,0,0,198.8,26a6.7,6.7,0,0,0-2.55.5,7.08,7.08,0,0,0-2.19,1.41,8.08,8.08,0,0,0-1.63,2.16,9.12,9.12,0,0,0-.94,2.75Z"/><path class="cls-1" d="M249.39,49.12q-1.6.27-2.79.42a15,15,0,0,1-2,.16q-8.84,0-8.83-9.71V28.52h-5.51V23.4h5.51V14.3h5.77v9.1h7.87v5.12H241.5V38a25.19,25.19,0,0,0,.17,3.21,6.09,6.09,0,0,0,.49,1.84v0c.53.95,1.71,1.43,3.54,1.43a10.28,10.28,0,0,0,3.69-1Z"/><path class="cls-1" d="M277.9,49.19h-5.77V33.68a22.18,22.18,0,0,0-.23-3.5,5.28,5.28,0,0,0-.78-2.16,2.74,2.74,0,0,0-1.47-1.09,7.3,7.3,0,0,0-2.33-.31,8.6,8.6,0,0,0-3.21.67,14.81,14.81,0,0,0-3.58,2.12V49.19h-5.78V11.55h5.78V24a13.61,13.61,0,0,1,8-2.88q9.35,0,9.34,10.53Z"/><path class="cls-1" d="M307.9,37.81H289a6.64,6.64,0,0,0,.84,2.68,6.73,6.73,0,0,0,1.82,2,8.44,8.44,0,0,0,2.63,1.32,10.79,10.79,0,0,0,3.28.48,18.1,18.1,0,0,0,9.9-2.89v6.28A40.68,40.68,0,0,1,302,49.29a23.49,23.49,0,0,1-4.7.51,18.08,18.08,0,0,1-6-.95,12.34,12.34,0,0,1-4.55-2.75,11.72,11.72,0,0,1-2.85-4.46,17.06,17.06,0,0,1-1-6,14.7,14.7,0,0,1,4.32-11,13,13,0,0,1,9.32-3.81,11.44,11.44,0,0,1,4.62.92,10.39,10.39,0,0,1,3.59,2.6,11.84,11.84,0,0,1,2.32,4,15.61,15.61,0,0,1,.83,5.19Zm-5.68-5a8.9,8.9,0,0,0-.57-2.84,6.88,6.88,0,0,0-1.31-2.15,5.63,5.63,0,0,0-1.89-1.36,5.83,5.83,0,0,0-2.32-.47,6.7,6.7,0,0,0-2.55.5,6.92,6.92,0,0,0-2.18,1.41,7.9,7.9,0,0,0-1.64,2.16,9.12,9.12,0,0,0-.94,2.75Z"/><path class="cls-1" d="M359.71,46.42a55.61,55.61,0,0,1-5.51,2.31,22.45,22.45,0,0,1-3.48.82,22.86,22.86,0,0,1-3.51.27,20.73,20.73,0,0,1-7.46-1.26,14.75,14.75,0,0,1-5.56-3.66A16,16,0,0,1,330.73,39a24.11,24.11,0,0,1-1.19-7.85,23.09,23.09,0,0,1,1.24-7.76,16.69,16.69,0,0,1,3.54-5.9,15.56,15.56,0,0,1,5.57-3.73,19.47,19.47,0,0,1,7.34-1.31,28.24,28.24,0,0,1,12.48,3.32v6.6H358.4a17.6,17.6,0,0,0-11.46-4.59,11.62,11.62,0,0,0-4.65.91,9.83,9.83,0,0,0-3.53,2.62,11.87,11.87,0,0,0-2.24,4.2,18.52,18.52,0,0,0-.79,5.64,18.33,18.33,0,0,0,.78,5.53,11.89,11.89,0,0,0,2.23,4.17,9.72,9.72,0,0,0,3.54,2.63,11.44,11.44,0,0,0,4.71.92,16.61,16.61,0,0,0,11.43-4.56h1.29Z"/><path class="cls-1" d="M389,49.19h-5.78V33.68a22.18,22.18,0,0,0-.23-3.5,5.14,5.14,0,0,0-.78-2.16,2.75,2.75,0,0,0-1.46-1.09,7.34,7.34,0,0,0-2.33-.31,8.68,8.68,0,0,0-3.22.67,15,15,0,0,0-3.58,2.12V49.19H365.8V11.55h5.77V24a13.63,13.63,0,0,1,8-2.88q9.34,0,9.35,10.53Z"/><path class="cls-1" d="M395.57,15.27a4,4,0,0,1,.34-1.63,4.33,4.33,0,0,1,.91-1.31,4.42,4.42,0,0,1,1.34-.89,4.14,4.14,0,0,1,1.59-.32,4,4,0,0,1,1.57.32,4.5,4.5,0,0,1,1.33.89,4.26,4.26,0,0,1,.91,1.32,4.05,4.05,0,0,1,.34,1.62,4,4,0,0,1-.33,1.59,4.32,4.32,0,0,1-.89,1.32,4.41,4.41,0,0,1-1.32.9,4,4,0,0,1-1.61.34,4,4,0,0,1-1.63-.33,4.45,4.45,0,0,1-1.32-.89,4.14,4.14,0,0,1-.9-1.31A4,4,0,0,1,395.57,15.27Zm7.14,33.92h-5.78V21.77h5.78Z"/><path class="cls-1" d="M416.34,49.19h-5.77V11.55h5.77Z"/><path class="cls-1" d="M447,49.19h-5.78V47.25a12.93,12.93,0,0,1-7.69,2.67,9.94,9.94,0,0,1-4.51-1,9.48,9.48,0,0,1-3.41-2.86,13.68,13.68,0,0,1-2.15-4.49,21.52,21.52,0,0,1-.75-5.89,17.81,17.81,0,0,1,.91-5.8,14.13,14.13,0,0,1,2.55-4.63A11.76,11.76,0,0,1,430,22.17a10.89,10.89,0,0,1,4.91-1.1,16,16,0,0,1,3.18.31,14.37,14.37,0,0,1,3.08,1V11.55H447Zm-5.78-21.6a17.24,17.24,0,0,0-2.74-.85,13.5,13.5,0,0,0-2.77-.29,7.11,7.11,0,0,0-3,.62,5.93,5.93,0,0,0-2.22,1.79,8.09,8.09,0,0,0-1.36,2.86,14.65,14.65,0,0,0-.46,3.86q0,8.76,5.94,8.76a8.94,8.94,0,0,0,3.29-.63,14.08,14.08,0,0,0,3.36-2Z"/><path class="cls-1" d="M471.79,28h-1a16.1,16.1,0,0,0-4-.46q-3.25,0-6.84,2.86V49.19h-5.78V20.6h5.78v4.3q4.29-3.13,8-3.13a16.56,16.56,0,0,1,1.77.1c.64.06,1.36.16,2.13.29Z"/><path class="cls-1" d="M499.09,37.81h-18.9a6.35,6.35,0,0,0,.84,2.68,6.6,6.6,0,0,0,1.82,2,8.44,8.44,0,0,0,2.63,1.32,10.68,10.68,0,0,0,3.27.48,18.1,18.1,0,0,0,9.9-2.89v6.28a39.85,39.85,0,0,1-5.42,1.56,23.4,23.4,0,0,1-4.69.51,18.18,18.18,0,0,1-6.06-.95,12.42,12.42,0,0,1-4.55-2.75,12,12,0,0,1-2.85-4.46,17.3,17.3,0,0,1-1-6,14.7,14.7,0,0,1,4.32-11,13,13,0,0,1,9.32-3.81,11.44,11.44,0,0,1,4.62.92,10.49,10.49,0,0,1,3.59,2.6,12,12,0,0,1,2.32,4,15.61,15.61,0,0,1,.82,5.19Zm-5.68-5a8.9,8.9,0,0,0-.57-2.84,6.88,6.88,0,0,0-1.31-2.15,5.63,5.63,0,0,0-1.89-1.36,5.8,5.8,0,0,0-2.32-.47,6.7,6.7,0,0,0-2.55.5,7.16,7.16,0,0,0-2.18,1.41A8.11,8.11,0,0,0,481,30.06a9.39,9.39,0,0,0-.93,2.75Z"/><path class="cls-1" d="M528,49.19h-5.78V33.68a21,21,0,0,0-.23-3.5,5.29,5.29,0,0,0-.77-2.16,2.81,2.81,0,0,0-1.47-1.09,7.34,7.34,0,0,0-2.33-.31,8.68,8.68,0,0,0-3.22.67,15.19,15.19,0,0,0-3.58,2.12V49.19h-5.77V21.77h5.77V24a13.63,13.63,0,0,1,8-2.88q9.33,0,9.34,10.53Z"/><path class="cls-1" d="M119.29,66.76a5.24,5.24,0,0,1-.43,2.16,4.76,4.76,0,0,1-1.25,1.66,5.69,5.69,0,0,1-2,1.07,8.1,8.1,0,0,1-2.59.38h-2.14v5.71h-2.65V61.83h4.87a9.48,9.48,0,0,1,2.7.34,5.61,5.61,0,0,1,1.92,1,3.92,3.92,0,0,1,1.15,1.56A5.08,5.08,0,0,1,119.29,66.76Zm-2.72,0a3.09,3.09,0,0,0-.2-1.16,1.87,1.87,0,0,0-.63-.82,3,3,0,0,0-1.09-.48,6.93,6.93,0,0,0-1.62-.16h-2.11v5.5h1.82a6.58,6.58,0,0,0,1.86-.22,2.94,2.94,0,0,0,1.17-.61,2.06,2.06,0,0,0,.62-.91A3.49,3.49,0,0,0,116.57,66.81Z"/><path class="cls-1" d="M130.64,77.74h-2.55V70.9a9.48,9.48,0,0,0-.1-1.55,2.39,2.39,0,0,0-.34-.95,1.26,1.26,0,0,0-.65-.48,3.31,3.31,0,0,0-1-.13,3.79,3.79,0,0,0-1.42.29A6.7,6.7,0,0,0,123,69v8.72h-2.55V61.14H123v5.47a6,6,0,0,1,3.54-1.27c2.74,0,4.12,1.54,4.12,4.64Z"/><path class="cls-1" d="M132.68,62.78a1.72,1.72,0,0,1,.15-.72,1.85,1.85,0,0,1,1-1,1.9,1.9,0,0,1,.7-.14,1.86,1.86,0,0,1,.7.14,2.11,2.11,0,0,1,.58.39,1.87,1.87,0,0,1,.4.59,1.71,1.71,0,0,1,.15.71,1.9,1.9,0,0,1-.14.7,2,2,0,0,1-.39.58,1.87,1.87,0,0,1-.59.4,1.76,1.76,0,0,1-1.42,0,1.69,1.69,0,0,1-.59-.39,1.61,1.61,0,0,1-.39-.57A1.75,1.75,0,0,1,132.68,62.78Zm3.15,15h-2.55V65.65h2.55Z"/><path class="cls-1" d="M141,77.74h-2.54V61.14H141Z"/><path class="cls-1" d="M143,62.78a1.72,1.72,0,0,1,.15-.72,1.95,1.95,0,0,1,1-1,1.91,1.91,0,0,1,.71-.14,1.81,1.81,0,0,1,.69.14,2,2,0,0,1,.58.39,1.81,1.81,0,0,1,.41,2,2,2,0,0,1-.39.58,1.82,1.82,0,0,1-.58.4,1.78,1.78,0,0,1-.71.15,1.72,1.72,0,0,1-.72-.15,1.79,1.79,0,0,1-.59-.39,1.92,1.92,0,0,1-.39-.57A1.75,1.75,0,0,1,143,62.78Zm3.15,15h-2.55V65.65h2.55Z"/><path class="cls-1" d="M159.55,71.55a7.92,7.92,0,0,1-.41,2.6,6.43,6.43,0,0,1-1.13,2,5.28,5.28,0,0,1-1.71,1.31,4.81,4.81,0,0,1-2.13.47,6.58,6.58,0,0,1-1.42-.14,5.64,5.64,0,0,1-1.36-.47v6.57h-2.55V65.65h2.55v.87a6.26,6.26,0,0,1,1.69-.89,5.38,5.38,0,0,1,1.77-.29A4,4,0,0,1,158.34,67,7.6,7.6,0,0,1,159.55,71.55Zm-2.61.06q0-3.83-2.58-3.82a3.86,3.86,0,0,0-1.45.29,7.06,7.06,0,0,0-1.52.85v6.15a6.1,6.1,0,0,0,2.44.53,2.68,2.68,0,0,0,2.33-1.06A4.85,4.85,0,0,0,156.94,71.61Z"/><path class="cls-1" d="M172.33,71.55a7.92,7.92,0,0,1-.41,2.6,6.45,6.45,0,0,1-1.14,2,5.14,5.14,0,0,1-1.7,1.31A4.81,4.81,0,0,1,167,78a6.52,6.52,0,0,1-1.42-.14,5.71,5.71,0,0,1-1.37-.47v6.57h-2.54V65.65h2.54v.87a6.46,6.46,0,0,1,1.7-.89,5.3,5.3,0,0,1,1.77-.29A4,4,0,0,1,171.11,67,7.6,7.6,0,0,1,172.33,71.55Zm-2.61.06q0-3.83-2.58-3.82a3.91,3.91,0,0,0-1.46.29,7.31,7.31,0,0,0-1.52.85v6.15a6.17,6.17,0,0,0,2.44.53,2.71,2.71,0,0,0,2.34-1.06A4.85,4.85,0,0,0,169.72,71.61Z"/><path class="cls-1" d="M173.65,62.78a1.58,1.58,0,0,1,.15-.72,1.77,1.77,0,0,1,.4-.58,2,2,0,0,1,.58-.39,1.91,1.91,0,0,1,.71-.14,1.81,1.81,0,0,1,.69.14,2,2,0,0,1,.58.39,1.89,1.89,0,0,1,.41.59,1.71,1.71,0,0,1,.15.71,1.73,1.73,0,0,1-.15.7,2,2,0,0,1-.39.58,1.82,1.82,0,0,1-.58.4,1.74,1.74,0,0,1-.71.15,1.72,1.72,0,0,1-.72-.15,1.65,1.65,0,0,1-.58-.39,1.78,1.78,0,0,1-.4-.57A1.75,1.75,0,0,1,173.65,62.78Zm3.14,15h-2.55V65.65h2.55Z"/><path class="cls-1" d="M189.73,77.74h-2.55V70.9a9.48,9.48,0,0,0-.1-1.55,2.39,2.39,0,0,0-.34-.95,1.26,1.26,0,0,0-.65-.48,3.31,3.31,0,0,0-1-.13,3.71,3.71,0,0,0-1.41.29,6.55,6.55,0,0,0-1.58.94v8.72h-2.55V65.65h2.55v1a6,6,0,0,1,3.54-1.27c2.74,0,4.12,1.54,4.12,4.64Z"/><path class="cls-1" d="M202.08,72.72h-8.34a2.92,2.92,0,0,0,.37,1.18,3,3,0,0,0,.8.91,3.82,3.82,0,0,0,1.16.58,4.84,4.84,0,0,0,1.45.21,8,8,0,0,0,4.36-1.28V77.1a18.91,18.91,0,0,1-2.39.68,10.28,10.28,0,0,1-2.07.22,8,8,0,0,1-2.67-.41,5.47,5.47,0,0,1-2-1.22,5.18,5.18,0,0,1-1.26-2,7.56,7.56,0,0,1-.43-2.65,6.48,6.48,0,0,1,1.9-4.85,5.72,5.72,0,0,1,4.11-1.68,4.89,4.89,0,0,1,2,.41,4.61,4.61,0,0,1,1.58,1.14,5.1,5.1,0,0,1,1,1.78,6.92,6.92,0,0,1,.37,2.29Zm-2.51-2.21a3.75,3.75,0,0,0-.25-1.25,3,3,0,0,0-.58-.94,2.45,2.45,0,0,0-.83-.6,2.52,2.52,0,0,0-1-.21,2.88,2.88,0,0,0-1.13.22,3.1,3.1,0,0,0-1,.62,3.41,3.41,0,0,0-.72,1,3.76,3.76,0,0,0-.41,1.21Z"/><path class="cls-1" d="M221.1,64.26h-7.73V68H220v2.43h-6.64v7.36h-2.66V61.83H221.1Z"/><path class="cls-1" d="M229.46,68.38H229a6.91,6.91,0,0,0-1.76-.21,4.92,4.92,0,0,0-3,1.26v8.31h-2.55V65.13h2.55V67a6.09,6.09,0,0,1,3.51-1.38,7.54,7.54,0,0,1,.78,0c.28,0,.6.07.94.13Z"/><path class="cls-1" d="M240.92,71.7a8.2,8.2,0,0,1-.39,2.6,5.65,5.65,0,0,1-1.12,2,5.09,5.09,0,0,1-1.77,1.3,6.12,6.12,0,0,1-4.63,0,4.94,4.94,0,0,1-1.77-1.29,5.83,5.83,0,0,1-1.13-2,8.93,8.93,0,0,1,0-5.22,5.78,5.78,0,0,1,1.12-2A4.82,4.82,0,0,1,233,65.8a5.64,5.64,0,0,1,2.33-.46,5.09,5.09,0,0,1,4.23,1.89h0A6.9,6.9,0,0,1,240.92,71.7Zm-2.61,0q0-4.08-3-4.08t-3,4.08a6.83,6.83,0,0,0,.19,1.69,3.86,3.86,0,0,0,.57,1.28,2.52,2.52,0,0,0,.93.82,2.86,2.86,0,0,0,1.3.29,2.93,2.93,0,0,0,1.3-.28,2.47,2.47,0,0,0,.94-.82,3.66,3.66,0,0,0,.56-1.28A6.8,6.8,0,0,0,238.31,71.7Z"/><path class="cls-1" d="M252.58,77.74H250V70.9a10.76,10.76,0,0,0-.1-1.55,2.39,2.39,0,0,0-.35-.95,1.23,1.23,0,0,0-.64-.48,3.35,3.35,0,0,0-1-.13,3.79,3.79,0,0,0-1.42.29,7,7,0,0,0-1.58.94v8.72h-2.54V65.65h2.54v1a6,6,0,0,1,3.55-1.27c2.74,0,4.11,1.54,4.11,4.64Z"/><path class="cls-1" d="M262.26,77.71c-.47.07-.88.14-1.23.18a6.41,6.41,0,0,1-.9.07c-2.6,0-3.9-1.42-3.9-4.28V68.62H253.8V66.36h2.43v-4h2.55v4h3.47v2.26h-3.47V72.8a10.8,10.8,0,0,0,.08,1.42,2.74,2.74,0,0,0,.21.81h0c.23.42.76.63,1.56.63a4.48,4.48,0,0,0,1.63-.42Z"/><path class="cls-1" d="M266.15,77.74h-2.54V61.14h2.54Z"/><path class="cls-1" d="M268.14,62.78a1.72,1.72,0,0,1,.15-.72,1.95,1.95,0,0,1,1-1A1.91,1.91,0,0,1,270,61a1.81,1.81,0,0,1,.69.14,2,2,0,0,1,.58.39,1.81,1.81,0,0,1,.41,2,2,2,0,0,1-.39.58,1.82,1.82,0,0,1-.58.4,1.78,1.78,0,0,1-.71.15,1.72,1.72,0,0,1-.72-.15,1.79,1.79,0,0,1-.59-.39,1.92,1.92,0,0,1-.39-.57A1.75,1.75,0,0,1,268.14,62.78Zm3.15,15h-2.55V65.65h2.55Z"/><path class="cls-1" d="M284.23,77.74h-2.55V70.9a9.48,9.48,0,0,0-.1-1.55,2.39,2.39,0,0,0-.34-.95,1.26,1.26,0,0,0-.65-.48,3.31,3.31,0,0,0-1-.13,3.79,3.79,0,0,0-1.42.29,6.7,6.7,0,0,0-1.57.94v8.72H274V65.65h2.55v1a6,6,0,0,1,3.54-1.27c2.74,0,4.12,1.54,4.12,4.64Z"/><path class="cls-1" d="M296.58,72.72h-8.34a2.92,2.92,0,0,0,.37,1.18,3,3,0,0,0,.8.91,3.82,3.82,0,0,0,1.16.58,4.84,4.84,0,0,0,1.45.21,8,8,0,0,0,4.36-1.28V77.1a18.91,18.91,0,0,1-2.39.68,10.28,10.28,0,0,1-2.07.22,8,8,0,0,1-2.67-.41,5.47,5.47,0,0,1-2-1.22,5.18,5.18,0,0,1-1.26-2,7.56,7.56,0,0,1-.43-2.65,6.48,6.48,0,0,1,1.9-4.85,5.72,5.72,0,0,1,4.11-1.68,4.89,4.89,0,0,1,2,.41,4.61,4.61,0,0,1,1.58,1.14,5.1,5.1,0,0,1,1,1.78,6.67,6.67,0,0,1,.37,2.29Zm-2.51-2.21a3.75,3.75,0,0,0-.25-1.25,2.87,2.87,0,0,0-.58-.94,2.45,2.45,0,0,0-.83-.6,2.52,2.52,0,0,0-1-.21,2.88,2.88,0,0,0-1.13.22,3.1,3.1,0,0,0-1,.62,3.61,3.61,0,0,0-.72,1,3.76,3.76,0,0,0-.41,1.21Z"/><path class="cls-1" d="M319.53,77.74h-2.64v-12l-3.69,7.82h-1.74l-3.65-7.77v12H305.3V61.83h3.36l3.8,8,3.66-8h3.41Z"/><path class="cls-1" d="M321.9,62.78a1.58,1.58,0,0,1,.16-.72,1.77,1.77,0,0,1,.4-.58,2,2,0,0,1,.58-.39,1.91,1.91,0,0,1,.71-.14,1.81,1.81,0,0,1,.69.14,2,2,0,0,1,.58.39,1.89,1.89,0,0,1,.41.59,1.71,1.71,0,0,1,.15.71,1.73,1.73,0,0,1-.15.7,2,2,0,0,1-.39.58,1.82,1.82,0,0,1-.58.4,1.74,1.74,0,0,1-.71.15,1.72,1.72,0,0,1-.72-.15,1.65,1.65,0,0,1-.58-.39,1.78,1.78,0,0,1-.4-.57A1.75,1.75,0,0,1,321.9,62.78Zm3.15,15H322.5V65.65h2.55Z"/><path class="cls-1" d="M338,77.74h-2.55V70.9a9.48,9.48,0,0,0-.1-1.55,2.39,2.39,0,0,0-.34-.95,1.26,1.26,0,0,0-.65-.48,3.31,3.31,0,0,0-1-.13,3.79,3.79,0,0,0-1.42.29,6.7,6.7,0,0,0-1.57.94v8.72h-2.55V65.65h2.55v1a6,6,0,0,1,3.54-1.27c2.74,0,4.12,1.54,4.12,4.64Z"/><path class="cls-1" d="M340,62.78a1.72,1.72,0,0,1,.15-.72,1.85,1.85,0,0,1,1-1,1.9,1.9,0,0,1,.7-.14,1.82,1.82,0,0,1,.7.14,2,2,0,0,1,.58.39,1.87,1.87,0,0,1,.4.59,1.71,1.71,0,0,1,.15.71,1.9,1.9,0,0,1-.14.7,2,2,0,0,1-.39.58,1.94,1.94,0,0,1-.58.4,1.79,1.79,0,0,1-.72.15,1.71,1.71,0,0,1-.71-.15,1.79,1.79,0,0,1-.59-.39,1.82,1.82,0,0,1-.54-1.29Zm3.15,15h-2.55V65.65h2.55Z"/><path class="cls-1" d="M354,74.12a3.33,3.33,0,0,1-.39,1.61A3.76,3.76,0,0,1,352.53,77a5.26,5.26,0,0,1-1.63.79,7.49,7.49,0,0,1-2.06.28,15.67,15.67,0,0,1-4.23-1V74.38A10.41,10.41,0,0,0,349,75.76c1.6,0,2.4-.47,2.4-1.4a1,1,0,0,0-.38-.88,3.93,3.93,0,0,0-1.26-.45l-2.29-.48c-2-.53-3-1.66-3-3.38a3.18,3.18,0,0,1,.36-1.49,3.72,3.72,0,0,1,1-1.21,4.84,4.84,0,0,1,1.51-.81,6.07,6.07,0,0,1,1.91-.29,6.86,6.86,0,0,1,1.69.21,7.23,7.23,0,0,1,1.7.69v2.44l-.89-.43L351,68a4.53,4.53,0,0,0-.9-.25,5.11,5.11,0,0,0-.92-.09,3.63,3.63,0,0,0-.84.08,2.4,2.4,0,0,0-.67.25,1.38,1.38,0,0,0-.45.41,1,1,0,0,0-.16.55c0,.65.53,1.1,1.6,1.36h0l2.31.47a4.34,4.34,0,0,1,2.28,1.19A3.1,3.1,0,0,1,354,74.12Z"/><path class="cls-1" d="M362.36,77.71l-1.23.18a6.41,6.41,0,0,1-.9.07c-2.6,0-3.9-1.42-3.9-4.28V68.62H353.9V66.36h2.43v-4h2.55v4h3.47v2.26h-3.47V72.8a11.06,11.06,0,0,0,.07,1.42,2.43,2.43,0,0,0,.22.81h0q.34.63,1.56.63a4.52,4.52,0,0,0,1.63-.42Z"/><path class="cls-1" d="M371,68.38h-.45a6.91,6.91,0,0,0-1.76-.21,4.94,4.94,0,0,0-3,1.26v8.31h-2.54V65.13h2.54V67a6.09,6.09,0,0,1,3.51-1.38,7.28,7.28,0,0,1,.78,0c.29,0,.6.07.94.13Z"/><path class="cls-1" d="M371.89,62.78a1.72,1.72,0,0,1,.15-.72,1.85,1.85,0,0,1,1-1,1.9,1.9,0,0,1,.7-.14,1.86,1.86,0,0,1,.7.14,2.11,2.11,0,0,1,.58.39,1.87,1.87,0,0,1,.4.59,1.71,1.71,0,0,1,.15.71,1.9,1.9,0,0,1-.14.7,2,2,0,0,1-.39.58,1.87,1.87,0,0,1-.59.4,1.76,1.76,0,0,1-1.42,0,1.69,1.69,0,0,1-.59-.39,1.61,1.61,0,0,1-.39-.57A1.75,1.75,0,0,1,371.89,62.78Zm3.15,15h-2.55V65.65H375Z"/><path class="cls-1" d="M387.33,72.72H379a2.77,2.77,0,0,0,.37,1.18,3,3,0,0,0,.8.91,3.82,3.82,0,0,0,1.16.58,4.73,4.73,0,0,0,1.44.21,8,8,0,0,0,4.37-1.28V77.1a18.91,18.91,0,0,1-2.39.68,10.28,10.28,0,0,1-2.07.22,8,8,0,0,1-2.67-.41,5.51,5.51,0,0,1-2-1.22,5.18,5.18,0,0,1-1.26-2,7.79,7.79,0,0,1-.43-2.65,6.49,6.49,0,0,1,1.91-4.85,5.71,5.71,0,0,1,4.1-1.68,4.83,4.83,0,0,1,2,.41A4.55,4.55,0,0,1,386,66.78a5.1,5.1,0,0,1,1,1.78,6.92,6.92,0,0,1,.36,2.29Zm-2.5-2.21a4,4,0,0,0-.25-1.25,3,3,0,0,0-.58-.94,2.49,2.49,0,0,0-.84-.6,2.45,2.45,0,0,0-1-.21,3,3,0,0,0-2.08.84,3.64,3.64,0,0,0-.73,1,4.32,4.32,0,0,0-.41,1.21Z"/><path class="cls-1" d="M397.06,74.12a3.33,3.33,0,0,1-.39,1.61A3.65,3.65,0,0,1,395.6,77a5.15,5.15,0,0,1-1.63.79,7.49,7.49,0,0,1-2.06.28,15.54,15.54,0,0,1-4.22-1V74.38a10.34,10.34,0,0,0,4.38,1.38c1.6,0,2.4-.47,2.4-1.4a1,1,0,0,0-.38-.88,3.84,3.84,0,0,0-1.26-.45l-2.29-.48q-3-.8-3-3.38a3.3,3.3,0,0,1,.35-1.49,3.72,3.72,0,0,1,1-1.21,5.07,5.07,0,0,1,1.51-.81,6.12,6.12,0,0,1,1.91-.29,6.8,6.8,0,0,1,1.69.21,7.07,7.07,0,0,1,1.7.69v2.44l-.88-.43-.75-.31a4.53,4.53,0,0,0-.9-.25,5,5,0,0,0-.92-.09,3.74,3.74,0,0,0-.84.08,2.4,2.4,0,0,0-.67.25,1.25,1.25,0,0,0-.44.41.94.94,0,0,0-.16.55c0,.65.53,1.1,1.59,1.36h0l2.31.47a4.34,4.34,0,0,1,2.28,1.19A3.1,3.1,0,0,1,397.06,74.12Z"/><path class="cls-1" d="M399,81.54h-2.11l1.91-7.19a2.07,2.07,0,0,1,1.57-.81,2.47,2.47,0,0,1,1.69.9Z"/><path class="cls-1" d="M416.72,77.74h-6.66V75.57h2V64h-2V61.83h6.66V64h-2V75.57h2Z"/><path class="cls-1" d="M429.21,77.74h-2.55V70.9a9.48,9.48,0,0,0-.1-1.55,2.39,2.39,0,0,0-.34-.95,1.3,1.3,0,0,0-.65-.48,3.35,3.35,0,0,0-1-.13,3.79,3.79,0,0,0-1.42.29,7,7,0,0,0-1.58.94v8.72H419V65.65h2.54v1a6,6,0,0,1,3.55-1.27c2.74,0,4.12,1.54,4.12,4.64Z"/><path class="cls-1" d="M440.54,76.9a13,13,0,0,1-2.14.82,7.07,7.07,0,0,1-1.85.27,6.84,6.84,0,0,1-2.47-.41,5.19,5.19,0,0,1-1.87-1.22,5.44,5.44,0,0,1-1.18-2,7.88,7.88,0,0,1-.42-2.67,7.7,7.7,0,0,1,.42-2.62,5.49,5.49,0,0,1,1.19-2,5.3,5.3,0,0,1,1.87-1.27,6.61,6.61,0,0,1,2.46-.44,9,9,0,0,1,4,1.07V69.1H440a5.88,5.88,0,0,0-3.55-1.43,3.43,3.43,0,0,0-1.4.27,2.7,2.7,0,0,0-1,.79,3.51,3.51,0,0,0-.62,1.27,6.35,6.35,0,0,0-.21,1.71,4.68,4.68,0,0,0,.82,3,2.91,2.91,0,0,0,2.42,1,3.93,3.93,0,0,0,1-.11,6.9,6.9,0,0,0,.94-.31,8,8,0,0,0,.87-.45,7.71,7.71,0,0,0,.78-.55h.52Z"/></g></g></svg>